<svg width="652" height="196" viewBox="0 0 652 196" fill="none" xmlns="http://www.w3.org/2000/svg">
<path d="M227.333 85.17C226.953 81.26 225.763 77.33 223.773 73.37C221.763 69.42 219.003 65.68 215.463 62.14C210.703 57.38 205.783 53.93 200.673 51.77C184.163 20.99 151.663 0 114.353 0C63.5329 0 21.6329 38.95 16.9229 88.55C13.2629 88.88 10.1328 90.35 7.53285 92.96C4.66285 95.83 2.60285 99.19 1.35285 103.05C0.112853 106.9 -0.277151 110.91 0.192849 115.1C0.662849 119.27 1.88285 123.46 3.85285 127.64C5.81285 131.83 8.55284 135.68 12.0928 139.21C15.5328 142.65 19.4629 145.29 23.8829 147.1C26.2929 148.09 28.7029 148.81 31.1129 149.29C48.3729 177.16 79.2429 195.77 114.363 195.77C164.313 195.77 205.643 158.16 211.533 109.78C215.013 109.37 218.003 107.92 220.503 105.42C223.113 102.82 224.993 99.77 226.163 96.28C227.313 92.78 227.703 89.08 227.333 85.17ZM218.393 75.96C217.373 77.54 216.023 78.38 214.353 78.48C212.943 78.56 211.603 78.6 210.323 78.61C210.083 78.62 209.843 78.62 209.603 78.62C207.073 78.62 204.763 79.11 202.683 80.1C201.083 80.85 199.623 81.89 198.303 83.23C195.323 86.21 193.833 89.89 193.833 94.25C193.823 98.63 195.323 102.3 198.303 105.28C199.943 106.92 201.763 108.13 203.783 108.89C198.343 153.39 160.313 187.98 114.363 187.98C84.0329 187.98 57.1629 172.91 40.8229 149.87C44.0029 149.65 47.0728 149.03 50.0628 148.01C54.1628 146.61 57.6528 144.46 60.5328 141.58L135.903 66.2L139.803 62.29C140.833 61.27 141.993 60.76 143.293 60.76C144.593 60.76 145.763 61.28 146.793 62.29L147.623 61.46L145.393 59.23L118.453 32.28L117.613 33.12C118.633 34.15 119.143 35.31 119.143 36.62C119.143 37.92 118.623 39.09 117.603 40.11L38.1829 119.53C35.3829 122.31 32.6028 124.92 29.8128 127.35C29.6528 127.49 29.5029 127.62 29.3529 127.74C27.0829 129.68 24.9229 131.34 22.8729 132.7C22.5629 132.9 22.2529 133.11 21.9429 133.3C19.4829 134.85 17.2229 135.84 15.1429 136.28C13.0629 136.72 11.3429 136.34 9.98286 135.17C7.93286 133.49 6.93286 131.51 6.98286 129.24C7.02286 126.96 7.47287 125.21 8.30287 124C9.15287 122.79 10.2629 121.77 11.6629 120.93C13.0529 120.1 15.1029 119.73 17.7929 119.82C18.1829 119.85 18.5729 119.85 18.9529 119.85C21.6929 119.83 24.1928 119.13 26.4728 117.74C27.5928 117.06 28.6529 116.22 29.6629 115.21C32.6429 112.23 34.1529 108.57 34.1829 104.23C34.2129 99.89 32.6828 96.18 29.5928 93.08C28.0828 91.58 26.4429 90.44 24.6329 89.68C28.7829 43.84 67.4328 7.8 114.343 7.8C146.093 7.8 174.053 24.31 190.113 49.19C188.913 49.09 187.703 49.07 186.493 49.1C176.213 49.42 166.273 54.38 156.693 63.97L97.5129 123.15L93.6129 127.06C92.5829 128.09 91.4229 128.6 90.1229 128.6C88.8129 128.6 87.6529 128.08 86.6329 127.06L85.7929 127.9L114.973 157.07L115.803 156.23C114.773 155.21 114.273 154.04 114.273 152.74C114.273 151.44 114.773 150.28 115.803 149.26L159.913 105.15L163.543 108.78C166.613 111.85 168.143 115.52 168.143 119.8C168.143 124.08 166.613 127.76 163.543 130.83L164.383 131.66L187.273 108.78L186.433 107.93C183.363 111 179.683 112.54 175.403 112.54C171.123 112.54 167.453 111 164.383 107.93L160.753 104.3L186.853 78.2C191.503 73.54 195.583 69.89 199.083 67.23C201.173 65.64 203.053 64.41 204.723 63.54C205.103 63.35 205.463 63.18 205.823 63.03C209.843 61.33 213.433 62.06 216.583 65.22C217.703 66.33 218.583 67.91 219.243 69.96C219.893 72 219.613 74 218.393 75.96Z" fill="url(#paint0_linear)"/>
<path d="M273.719 123.008C270.541 122.627 267.601 121.803 264.909 120.554C262.212 119.305 259.874 117.735 257.901 115.862C255.928 113.983 254.364 111.844 253.203 109.434C252.048 107.03 251.468 104.476 251.468 101.779C251.468 98.6011 252.573 95.904 254.79 93.6877C257 91.4714 259.703 90.366 262.881 90.366C266.059 90.366 268.756 91.4714 270.973 93.6877C273.189 95.904 274.294 98.6011 274.294 101.779C274.294 105.151 273.04 107.942 270.536 110.158C269.093 111.507 268.226 112.756 267.938 113.916C267.651 115.071 267.601 116.182 267.795 117.238C267.988 118.299 268.541 119.476 269.453 120.775C270.37 122.074 271.791 122.82 273.719 123.008ZM303.907 53.3799V77.6486V99.4633C303.907 102.448 303.211 105.366 301.824 108.201C300.431 111.042 298.568 113.596 296.22 115.856C293.871 118.122 291.091 119.924 287.879 121.273C284.668 122.621 281.291 123.295 277.749 123.295C277.268 123.295 276.837 123.295 276.455 123.295C276.068 123.295 275.643 123.246 275.162 123.152C276.411 123.058 277.45 122.428 278.268 121.273C279.086 120.117 279.688 118.553 280.075 116.58C280.462 114.607 280.728 112.297 280.871 109.644C281.015 106.997 281.087 104.228 281.087 101.337V78.2234V69.1205V53.6617V44.4152V30.2607V25.7839C281.087 24.7283 280.75 23.8606 280.075 23.1863C279.401 22.512 278.533 22.1748 277.478 22.1748H280.656H304.344H307.522C306.461 22.1748 305.593 22.512 304.924 23.1863C304.25 23.8606 303.913 24.7283 303.913 25.7839V46.5873V53.3799H303.907Z" fill="url(#paint1_linear)"/>
<path d="M321.533 107.698C321.245 109.915 321.411 111.982 322.041 113.911C322.666 115.84 323.627 117.498 324.932 118.896C326.231 120.294 327.773 121.378 329.552 122.146C331.332 122.92 333.239 123.301 335.256 123.301H304.775C306.798 123.301 308.677 122.87 310.407 122.002C312.143 121.134 313.707 119.979 315.105 118.537C316.498 117.094 317.73 115.431 318.791 113.551C319.847 111.672 320.765 109.721 321.533 107.698ZM343.928 42.4034L350.571 22.1804L383.943 120.698C384.23 121.472 384.711 122.096 385.385 122.577C386.06 123.058 386.828 123.301 387.696 123.301H385.529H362.128H359.818C360.398 123.301 360.923 123.085 361.41 122.649C361.89 122.218 362.134 121.665 362.134 120.985C362.134 120.792 362.111 120.648 362.062 120.554C362.012 120.46 361.99 120.316 361.99 120.123L349.134 82.4183L346.1 73.6084L344.077 67.3961L342.054 61.4713C341.767 60.5096 341.043 60.0287 339.888 60.0287C338.733 60.0287 338.009 60.5096 337.721 61.4713L340.899 51.9373L343.928 42.4034Z" fill="url(#paint2_linear)"/>
<path d="M406.189 109.434C406.189 111.363 406.548 113.165 407.272 114.85C407.996 116.536 409.007 118.006 410.306 119.255C411.605 120.51 413.097 121.494 414.783 122.218C416.469 122.942 418.271 123.301 420.199 123.301H392.322C396.174 123.301 399.446 121.952 402.143 119.255C404.84 116.558 406.189 113.286 406.189 109.434ZM450.968 79.0966L459.778 101.779C460.452 103.222 461.513 103.946 462.956 103.946C463.917 103.946 464.735 103.609 465.41 102.934C466.084 102.26 466.421 101.492 466.421 100.624V123.306H443.888L426.555 78.9585L419.475 61.0457L412.688 43.7132C412.208 42.2707 411.146 41.5467 409.51 41.5467C408.549 41.5467 407.753 41.8838 407.128 42.5581C406.498 43.2324 406.189 44.0504 406.189 45.0121V44.8684V22.1804H428.578L443.744 60.7528L450.968 79.0966ZM466.427 36.0474C466.427 34.124 466.067 32.3167 465.343 30.631C464.619 28.9453 463.608 27.4752 462.309 26.2261C461.01 24.977 459.512 23.9877 457.832 23.2636C456.147 22.5396 454.339 22.1804 452.416 22.1804H480.299C476.447 22.1804 473.169 23.5289 470.478 26.2261C467.775 28.9232 466.427 32.1951 466.427 36.0474Z" fill="url(#paint3_linear)"/>
<path d="M516.711 22.1804H519.872C518.811 22.1804 517.943 22.5175 517.274 23.1918C516.6 23.8661 516.263 24.7338 516.263 25.7894V46.5928V60.0287V115.21V119.686C516.263 120.748 516.6 121.615 517.274 122.284C517.949 122.958 518.816 123.295 519.872 123.295H516.711H499.76H493.006H489.828C490.883 123.295 491.751 122.958 492.425 122.284C493.1 121.61 493.437 120.742 493.437 119.686V115.21V60.0287V46.5928V34.0246V31.858V30.2663V25.7894C493.437 24.7338 493.1 23.8661 492.425 23.1918C491.751 22.5175 490.883 22.1804 489.828 22.1804H493.006H516.711ZM521.464 72.7407C523.487 72.7407 525.438 72.3317 527.317 71.5137C529.196 70.6957 530.854 69.5903 532.302 68.192C533.745 66.7992 534.9 65.1853 535.767 63.3504C536.635 61.521 537.066 59.5921 537.066 57.5692V88.0502C537.066 86.0274 536.635 84.0764 535.767 82.1972C534.9 80.3181 533.745 78.6821 532.302 77.2838C530.86 75.891 529.196 74.7801 527.317 73.9621C525.438 73.1496 523.487 72.7407 521.464 72.7407ZM546.6 22.1804V40.2368C546.6 37.8326 546.114 35.5445 545.158 33.3779C544.196 31.2114 542.87 29.3101 541.184 27.6741C539.498 26.0382 537.575 24.7117 535.408 23.7003C533.242 22.6888 531.003 22.1859 528.693 22.1859H546.6V22.1804ZM528.687 123.301C530.998 123.301 533.236 122.82 535.403 121.858C537.569 120.897 539.493 119.57 541.178 117.885C542.864 116.199 544.185 114.275 545.152 112.109C546.114 109.942 546.595 107.704 546.595 105.394V123.306H528.687V123.301Z" fill="url(#paint4_linear)"/>
<path d="M566.099 47.8916C567.835 45.9683 568.653 44.1333 568.553 42.4034C568.454 40.6679 567.879 39.6123 566.818 39.2254C563.64 39.2254 560.942 38.12 558.726 35.9037C556.51 33.6874 555.405 30.9903 555.405 27.8123C555.405 24.6343 556.51 21.9372 558.726 19.7209C560.937 17.5046 563.64 16.3992 566.818 16.3992C569.996 16.3992 572.693 17.5046 574.909 19.7209C577.125 21.9372 578.231 24.6343 578.231 27.8123C578.231 30.0286 577.844 32.1454 577.076 34.1683C576.302 36.1911 575.34 38.0924 574.185 39.8721C573.03 41.6573 571.731 43.2214 570.283 44.5644C568.846 45.9185 567.448 47.0239 566.099 47.8916Z" fill="url(#paint5_linear)"/>
<path d="M619.688 22.1804C617.185 22.1804 614.946 22.6833 612.973 23.6947C611 24.7062 609.48 26.1266 608.424 27.956C607.363 29.7854 606.86 31.952 606.91 34.4557C606.954 36.9593 607.8 39.7062 609.436 42.6908C611.072 45.7748 613.266 48.6875 616.007 51.4288C618.754 54.1757 621.661 56.8452 624.745 59.4484C627.829 62.0461 630.958 64.6492 634.136 67.2469C637.314 69.8446 640.177 72.5693 642.73 75.4102C645.283 78.251 647.378 81.3129 649.014 84.5849C650.65 87.8623 651.468 91.4272 651.468 95.2739C651.468 100.281 650.479 104.543 648.506 108.058C646.532 111.573 644.001 114.463 640.923 116.724C637.839 118.99 634.323 120.648 630.377 121.709C626.426 122.77 622.529 123.295 618.677 123.295C621.081 123.295 623.297 122.792 625.32 121.781C627.343 120.77 628.879 119.349 629.941 117.52C630.996 115.69 631.505 113.524 631.455 111.02C631.405 108.516 630.609 105.77 629.073 102.785C627.337 99.7065 625.121 96.8159 622.43 94.1188C619.732 91.4217 616.82 88.7521 613.691 86.0992C610.563 83.4518 607.407 80.8265 604.229 78.2289C601.051 75.6312 598.183 72.9065 595.635 70.0656C593.082 67.2248 590.987 64.1684 589.351 60.8909C587.709 57.619 586.897 54.0541 586.897 50.2019C586.897 45.2884 587.881 41.0548 589.859 37.4899C591.833 33.9306 594.358 31.0124 597.442 28.7519C600.526 26.4914 604.014 24.8278 607.916 23.7666C611.818 22.7109 615.742 22.1804 619.688 22.1804ZM612.47 122.864C608.811 122.383 605.628 121.543 602.936 120.339C600.239 119.134 598.072 118.006 596.436 116.945C593.64 115.022 591.357 112.756 589.572 110.158C587.787 107.56 586.903 104.764 586.903 101.779C586.903 98.6951 588.008 96.0256 590.224 93.7596C592.435 91.499 595.138 90.366 598.316 90.366C601.494 90.366 604.191 91.499 606.407 93.7596C608.623 96.0256 609.729 98.6951 609.729 101.779C609.729 105.438 608.38 108.378 605.683 110.589C604.909 111.263 604.169 112.081 603.445 113.043C602.721 114.005 602.505 115.16 602.792 116.508C602.986 117.857 604.019 119.134 605.899 120.339C607.772 121.543 609.961 122.383 612.47 122.864ZM625.9 22.6115C629.559 23.0923 632.737 23.9379 635.434 25.1373C638.132 26.3421 640.298 27.5194 641.934 28.6745C644.725 30.6034 647.013 32.8418 648.799 35.3897C650.578 37.9431 651.468 40.7121 651.468 43.6967C651.468 46.8746 650.357 49.5718 648.146 51.7881C645.93 54.0044 643.233 55.1098 640.055 55.1098C636.877 55.1098 634.18 54.0044 631.963 51.7881C629.747 49.5718 628.642 46.8746 628.642 43.6967C628.642 41.9612 629.001 40.3253 629.725 38.7832C630.449 37.2412 631.433 35.9424 632.688 34.8812C633.456 34.207 634.202 33.389 634.926 32.4273C635.65 31.4656 635.866 30.3105 635.578 28.9619C635.385 27.6133 634.351 26.3366 632.472 25.1317C630.598 23.9379 628.404 23.0978 625.9 22.6115Z" fill="url(#paint6_linear)"/>
<path d="M309.119 163.261V162.526H332.537V167.467H332.001L331.658 166.931C331.105 166.019 330.216 165.283 328.994 164.731C327.773 164.178 326.424 163.902 324.96 163.902H316.503V177.15H321.395C322.633 177.15 323.727 176.995 324.672 176.686C325.617 176.376 326.22 175.978 326.479 175.486L326.673 175.193H327.259V180.77H326.673L326.479 180.427C326.187 179.875 325.573 179.416 324.645 179.057C323.716 178.697 322.633 178.52 321.395 178.52H316.503V190.89C316.503 193.007 317.316 194.068 318.946 194.068V194.803H309.119V194.068C310.424 194.068 311.076 193.012 311.076 190.89V166.444C311.076 164.322 310.424 163.261 309.119 163.261Z" fill="white"/>
<path d="M368.047 194.797L367.948 194.162H368.291C368.876 194.162 369.23 193.869 369.341 193.283C369.457 192.697 369.319 191.929 368.926 190.984C368.434 189.746 367.931 188.497 367.412 187.242C366.892 185.987 366.384 184.738 365.897 183.5H354.943L352.5 190.542C352.141 191.619 352.058 192.481 352.257 193.134C352.45 193.786 352.876 194.112 353.528 194.112H353.921V194.847H347.515V194.112C348.786 194.112 349.814 193.134 350.593 191.177L361.205 161.79H362.576L374.995 191.078C375.874 193.067 376.918 194.057 378.123 194.057V194.792H368.047V194.797ZM365.361 182.135L359.984 169.031L355.435 182.135H365.361Z" fill="white"/>
<path d="M414.357 169.473L413.772 169.523C413.606 169.263 413.446 168.987 413.28 168.694C413.114 168.401 412.954 168.124 412.793 167.865C412.241 166.919 411.522 166.09 410.643 165.372C409.765 164.653 408.853 164.184 407.908 163.951C407.908 163.918 407.808 163.885 407.615 163.852C407.421 163.819 407.189 163.786 406.929 163.753C406.636 163.719 406.294 163.686 405.901 163.653C403.945 163.653 402.381 164.233 401.209 165.388C400.037 166.549 399.451 168.069 399.451 169.959C399.451 170.545 399.656 171.148 400.059 171.767C400.468 172.386 401.043 172.988 401.795 173.574C402.546 174.16 403.447 174.712 404.508 175.237C405.57 175.757 406.736 176.216 408.007 176.608C409.278 177.001 410.433 177.52 411.478 178.172C412.523 178.824 413.412 179.56 414.142 180.372C414.877 181.184 415.446 182.058 415.855 182.986C416.264 183.915 416.463 184.871 416.463 185.844C416.463 187.214 416.209 188.469 415.706 189.607C415.203 190.746 414.485 191.724 413.556 192.542C412.628 193.355 411.517 193.985 410.229 194.427C408.941 194.869 407.499 195.085 405.901 195.085C403.978 195.085 402.082 194.875 400.203 194.449C398.329 194.023 396.787 193.471 395.583 192.785V187.894H396.218C396.318 188.06 396.423 188.237 396.539 188.43C396.655 188.624 396.76 188.806 396.859 188.966C397.511 190.105 398.457 191.083 399.695 191.901C400.933 192.714 402.27 193.255 403.702 193.515C404.453 193.614 405.166 193.659 405.852 193.659C407.874 193.659 409.494 193.145 410.715 192.117C411.937 191.089 412.55 189.729 412.55 188.032C412.55 187.347 412.34 186.662 411.915 185.982C411.489 185.296 410.898 184.639 410.129 184.003C409.361 183.368 408.444 182.771 407.366 182.218C406.288 181.665 405.083 181.173 403.746 180.753C402.541 180.361 401.43 179.858 400.419 179.239C399.407 178.62 398.55 177.935 397.854 177.183C397.152 176.437 396.605 175.619 396.218 174.74C395.826 173.861 395.632 172.966 395.632 172.048C395.632 170.584 395.886 169.246 396.389 168.041C396.892 166.837 397.605 165.809 398.517 164.963C399.429 164.117 400.529 163.454 401.817 162.984C403.105 162.509 404.531 162.277 406.095 162.277C407.399 162.277 408.797 162.487 410.301 162.912C411.799 163.338 413.153 163.891 414.357 164.576V169.473Z" fill="white"/>
<path d="M466.537 194.062V194.797H457.197V194.062C458.501 194.062 459.153 193.007 459.153 190.884V178.515H442.97V190.884C442.97 193.001 443.623 194.062 444.927 194.062V194.797H435.586V194.062C436.891 194.062 437.543 193.007 437.543 190.884V166.439C437.543 164.322 436.891 163.261 435.586 163.261V162.526H444.927V163.261C443.623 163.261 442.97 164.322 442.97 166.439V177.144H459.153V166.439C459.153 164.322 458.501 163.261 457.197 163.261V162.526H466.537V163.261C465.233 163.261 464.581 164.322 464.581 166.439V190.884C464.586 193.007 465.233 194.062 466.537 194.062Z" fill="white"/>
<path d="M494.813 194.062V194.797H485.472V194.062C486.777 194.062 487.429 193.007 487.429 190.884V166.439C487.429 164.322 486.777 163.261 485.472 163.261V162.526H494.813V163.261C493.509 163.261 492.856 164.322 492.856 166.439V190.884C492.856 193.007 493.509 194.062 494.813 194.062Z" fill="white"/>
<path d="M514.036 178.664C514.036 176.448 514.378 174.348 515.064 172.358C515.749 170.368 516.777 168.633 518.142 167.152C519.513 165.67 521.204 164.488 523.227 163.609C525.25 162.73 527.593 162.288 530.268 162.288C532.943 162.288 535.287 162.73 537.309 163.609C539.332 164.488 541.018 165.67 542.372 167.152C543.726 168.633 544.743 170.374 545.428 172.358C546.114 174.348 546.456 176.448 546.456 178.664C546.456 180.88 546.114 182.981 545.428 184.97C544.743 186.96 543.726 188.696 542.372 190.177C541.018 191.663 539.332 192.841 537.309 193.719C535.287 194.598 532.943 195.04 530.268 195.04C527.593 195.04 525.25 194.598 523.227 193.719C521.204 192.841 519.513 191.658 518.142 190.177C516.771 188.696 515.749 186.96 515.064 184.97C514.378 182.981 514.036 180.88 514.036 178.664ZM520.049 178.664C520.049 180.687 520.27 182.61 520.707 184.434C521.149 186.258 521.79 187.855 522.641 189.226C523.487 190.597 524.548 191.68 525.819 192.476C527.09 193.277 528.571 193.675 530.268 193.675C531.932 193.675 533.396 193.277 534.668 192.476C535.939 191.68 537.005 190.591 537.868 189.226C538.73 187.855 539.376 186.258 539.797 184.434C540.222 182.61 540.432 180.687 540.432 178.664C540.432 176.641 540.222 174.718 539.797 172.894C539.371 171.07 538.73 169.473 537.868 168.102C537.005 166.732 535.939 165.648 534.668 164.852C533.396 164.057 531.932 163.653 530.268 163.653C528.571 163.653 527.09 164.051 525.819 164.852C524.548 165.654 523.487 166.737 522.641 168.102C521.79 169.473 521.149 171.07 520.707 172.894C520.27 174.718 520.049 176.641 520.049 178.664Z" fill="white"/>
<path d="M565.823 163.261L565.773 162.526H572.571L590.025 186.921V166.433C590.025 164.316 589.373 163.255 588.069 163.255V162.52H593.64V163.255C592.335 163.255 591.683 164.316 591.683 166.433V195.77H589.826L569.437 167.312V190.879C569.437 192.995 570.09 194.057 571.394 194.057V194.792H565.823V194.057C567.127 194.057 567.779 193.001 567.779 190.879V166.433C567.779 164.322 567.127 163.261 565.823 163.261Z" fill="white"/>
<defs>
<linearGradient id="paint0_linear" x1="202.503" y1="-1.4888" x2="79.5749" y2="137.095" gradientUnits="userSpaceOnUse">
<stop stop-color="#EFC3C4" stop-opacity="0"/>
<stop offset="1" stop-color="#B97778"/>
</linearGradient>
<linearGradient id="paint1_linear" x1="285.3" y1="-30.3365" x2="280.467" y2="52.9056" gradientUnits="userSpaceOnUse">
<stop stop-color="#EFC3C4" stop-opacity="0"/>
<stop offset="1" stop-color="#B97778"/>
</linearGradient>
<linearGradient id="paint2_linear" x1="354.924" y1="-26.2941" x2="350.09" y2="56.948" gradientUnits="userSpaceOnUse">
<stop stop-color="#EFC3C4" stop-opacity="0"/>
<stop offset="1" stop-color="#B97778"/>
</linearGradient>
<linearGradient id="paint3_linear" x1="441.764" y1="-21.2513" x2="436.931" y2="61.9908" gradientUnits="userSpaceOnUse">
<stop stop-color="#EFC3C4" stop-opacity="0"/>
<stop offset="1" stop-color="#B97778"/>
</linearGradient>
<linearGradient id="paint4_linear" x1="523.394" y1="-16.512" x2="518.561" y2="66.7301" gradientUnits="userSpaceOnUse">
<stop stop-color="#EFC3C4" stop-opacity="0"/>
<stop offset="1" stop-color="#B97778"/>
</linearGradient>
<linearGradient id="paint5_linear" x1="569.245" y1="-13.8496" x2="564.411" y2="69.3925" gradientUnits="userSpaceOnUse">
<stop stop-color="#EFC3C4" stop-opacity="0"/>
<stop offset="1" stop-color="#B97778"/>
</linearGradient>
<linearGradient id="paint6_linear" x1="624.029" y1="-10.6684" x2="619.196" y2="72.5737" gradientUnits="userSpaceOnUse">
<stop stop-color="#EFC3C4" stop-opacity="0"/>
<stop offset="1" stop-color="#B97778"/>
</linearGradient>
</defs>
</svg>
