<svg width="80" height="64" viewBox="0 0 80 64" fill="none" xmlns="http://www.w3.org/2000/svg">
<path d="M5.71201 47.9391C5.09867 47.8655 4.5312 47.7066 4.01174 47.4655C3.4912 47.2245 3.04 46.9216 2.6592 46.5599C2.2784 46.1973 1.97654 45.7845 1.75254 45.3194C1.5296 44.8554 1.4176 44.3626 1.4176 43.8421C1.4176 43.2287 1.63094 42.7082 2.05867 42.2805C2.48534 41.8528 3.00694 41.6394 3.62027 41.6394C4.2336 41.6394 4.75414 41.8528 5.18187 42.2805C5.60961 42.7082 5.82294 43.2287 5.82294 43.8421C5.82294 44.4927 5.58081 45.0314 5.09761 45.4591C4.81921 45.7194 4.65174 45.9605 4.59627 46.1845C4.5408 46.4074 4.5312 46.6218 4.56854 46.8255C4.60587 47.0303 4.71254 47.2576 4.88854 47.5082C5.06561 47.7589 5.33974 47.9029 5.71201 47.9391ZM11.5381 34.5013V39.185V43.3951C11.5381 43.9711 11.4037 44.5344 11.136 45.0816C10.8672 45.6298 10.5077 46.1226 10.0544 46.5589C9.60108 46.9962 9.06454 47.344 8.44481 47.6042C7.82507 47.8645 7.17334 47.9946 6.48961 47.9946C6.39681 47.9946 6.31361 47.9946 6.24001 47.9946C6.16534 47.9946 6.08321 47.985 5.99041 47.9669C6.23147 47.9488 6.43201 47.8272 6.58987 47.6042C6.74774 47.3813 6.86401 47.0794 6.93867 46.6986C7.01334 46.3178 7.06454 45.8719 7.09227 45.3599C7.12001 44.849 7.13387 44.3146 7.13387 43.7568V39.2959V37.5391V34.5557V32.7712V30.0394V29.1754C7.13387 28.9717 7.06881 28.8042 6.93867 28.6741C6.80854 28.544 6.64107 28.4789 6.43734 28.4789H7.05067H11.6224H12.2357C12.0309 28.4789 11.8635 28.544 11.7344 28.6741C11.6043 28.8042 11.5392 28.9717 11.5392 29.1754V33.1904V34.5013H11.5381Z" fill="url(#paint0_linear)"/>
<path d="M14.9397 44.9845C14.8842 45.4122 14.9162 45.8112 15.0378 46.1834C15.1584 46.5557 15.344 46.8757 15.5957 47.1456C15.8464 47.4154 16.144 47.6245 16.4874 47.7728C16.8309 47.9221 17.1989 47.9957 17.5882 47.9957H11.7056C12.096 47.9957 12.4586 47.9125 12.7925 47.745C13.1274 47.5776 13.4293 47.3546 13.6992 47.0762C13.968 46.7978 14.2058 46.4768 14.4106 46.1141C14.6144 45.7514 14.7914 45.3749 14.9397 44.9845ZM19.2618 32.3829L20.544 28.48L26.9845 47.4933C27.04 47.6426 27.1328 47.7632 27.2629 47.856C27.393 47.9488 27.5413 47.9957 27.7088 47.9957H27.2906H22.7744H22.3285C22.4405 47.9957 22.5418 47.9541 22.6357 47.8698C22.7285 47.7866 22.7754 47.68 22.7754 47.5488C22.7754 47.5114 22.7712 47.4837 22.7616 47.4656C22.752 47.4474 22.7477 47.4197 22.7477 47.3824L20.2666 40.1056L19.681 38.4053L19.2906 37.2064L18.9002 36.0629C18.8448 35.8773 18.705 35.7845 18.4821 35.7845C18.2592 35.7845 18.1194 35.8773 18.064 36.0629L18.6773 34.2229L19.2618 32.3829Z" fill="url(#paint1_linear)"/>
<path d="M31.2778 45.3194C31.2778 45.6917 31.3472 46.0394 31.4869 46.3648C31.6266 46.6901 31.8218 46.9738 32.0725 47.2149C32.3232 47.457 32.6112 47.6469 32.9365 47.7866C33.2618 47.9264 33.6096 47.9957 33.9818 47.9957H28.6016C29.345 47.9957 29.9765 47.7354 30.497 47.2149C31.0176 46.6944 31.2778 46.0629 31.2778 45.3194ZM39.92 39.4645L41.6202 43.8421C41.7504 44.1205 41.9552 44.2602 42.2336 44.2602C42.4192 44.2602 42.577 44.1952 42.7072 44.065C42.8373 43.9349 42.9024 43.7866 42.9024 43.6192V47.9968H38.5536L35.2085 39.4378L33.8421 35.9808L32.5322 32.6357C32.4394 32.3573 32.2346 32.2176 31.9189 32.2176C31.7333 32.2176 31.5797 32.2826 31.4592 32.4128C31.3376 32.5429 31.2778 32.7008 31.2778 32.8864V32.8586V28.48H35.5989L38.5258 35.9242L39.92 39.4645ZM42.9035 31.1562C42.9035 30.785 42.8341 30.4362 42.6944 30.1109C42.5547 29.7856 42.3594 29.5018 42.1088 29.2608C41.8581 29.0197 41.569 28.8288 41.2448 28.689C40.9194 28.5493 40.5706 28.48 40.1994 28.48H45.5808C44.8373 28.48 44.2048 28.7402 43.6853 29.2608C43.1637 29.7813 42.9035 30.4128 42.9035 31.1562Z" fill="url(#paint2_linear)"/>
<path d="M52.6079 28.48H53.2181C53.0133 28.48 52.8458 28.545 52.7167 28.6752C52.5866 28.8053 52.5215 28.9728 52.5215 29.1765V33.1914V35.7845V46.4341V47.2981C52.5215 47.5029 52.5866 47.6704 52.7167 47.7994C52.8469 47.9296 53.0143 47.9946 53.2181 47.9946H52.6079H49.3365H48.033H47.4197C47.6234 47.9946 47.7909 47.9296 47.921 47.7994C48.0511 47.6693 48.1162 47.5018 48.1162 47.2981V46.4341V35.7845V33.1914V30.7658V30.3477V30.0405V29.1765C48.1162 28.9728 48.0511 28.8053 47.921 28.6752C47.7909 28.545 47.6234 28.48 47.4197 28.48H48.033H52.6079ZM53.5253 38.2378C53.9157 38.2378 54.2922 38.1589 54.6549 38.001C55.0175 37.8432 55.3375 37.6298 55.617 37.36C55.8954 37.0912 56.1183 36.7797 56.2858 36.4256C56.4533 36.0725 56.5365 35.7002 56.5365 35.3098V41.1925C56.5365 40.8021 56.4533 40.4256 56.2858 40.0629C56.1183 39.7002 55.8954 39.3845 55.617 39.1146C55.3386 38.8458 55.0175 38.6314 54.6549 38.4736C54.2922 38.3168 53.9157 38.2378 53.5253 38.2378ZM58.3765 28.48V31.9648C58.3765 31.5008 58.2826 31.0592 58.0981 30.641C57.9125 30.2229 57.6565 29.856 57.3311 29.5402C57.0058 29.2245 56.6346 28.9685 56.2165 28.7733C55.7983 28.5781 55.3663 28.481 54.9205 28.481H58.3765V28.48ZM54.9194 47.9957C55.3653 47.9957 55.7973 47.9029 56.2154 47.7173C56.6335 47.5317 57.0047 47.2757 57.3301 46.9504C57.6554 46.625 57.9103 46.2538 58.097 45.8357C58.2826 45.4176 58.3754 44.9856 58.3754 44.5397V47.9968H54.9194V47.9957Z" fill="url(#paint3_linear)"/>
<path d="M62.1397 33.4421C62.4746 33.0709 62.6325 32.7168 62.6133 32.3829C62.5941 32.048 62.4831 31.8443 62.2783 31.7696C61.665 31.7696 61.1445 31.5563 60.7167 31.1285C60.289 30.7008 60.0757 30.1803 60.0757 29.5669C60.0757 28.9536 60.289 28.4331 60.7167 28.0053C61.1434 27.5776 61.665 27.3643 62.2783 27.3643C62.8917 27.3643 63.4122 27.5776 63.84 28.0053C64.2677 28.4331 64.481 28.9536 64.481 29.5669C64.481 29.9947 64.4063 30.4032 64.2581 30.7936C64.1087 31.184 63.9232 31.5509 63.7002 31.8944C63.4773 32.2389 63.2266 32.5408 62.9472 32.8C62.6698 33.0613 62.3999 33.2747 62.1397 33.4421Z" fill="url(#paint4_linear)"/>
<path d="M72.4821 28.48C71.9989 28.48 71.5669 28.577 71.1861 28.7722C70.8053 28.9674 70.512 29.2416 70.3082 29.5946C70.1034 29.9477 70.0064 30.3658 70.016 30.849C70.0245 31.3322 70.1877 31.8624 70.5034 32.4384C70.8192 33.0336 71.2426 33.5957 71.7717 34.1248C72.3018 34.6549 72.8629 35.1701 73.4581 35.6725C74.0533 36.1738 74.657 36.6762 75.2704 37.1776C75.8837 37.6789 76.4362 38.2048 76.929 38.753C77.4218 39.3013 77.8261 39.8922 78.1418 40.5237C78.4576 41.1562 78.6154 41.8442 78.6154 42.5866C78.6154 43.553 78.4245 44.3754 78.0437 45.0538C77.6629 45.7322 77.1744 46.2901 76.5802 46.7264C75.985 47.1637 75.3066 47.4837 74.545 47.6885C73.7824 47.8933 73.0304 47.9946 72.2869 47.9946C72.7509 47.9946 73.1786 47.8976 73.569 47.7024C73.9594 47.5072 74.256 47.233 74.4608 46.88C74.6645 46.5269 74.7626 46.1088 74.753 45.6256C74.7434 45.1424 74.5898 44.6122 74.2933 44.0362C73.9584 43.4421 73.5306 42.8842 73.0112 42.3637C72.4906 41.8432 71.9285 41.328 71.3248 40.816C70.721 40.305 70.112 39.7984 69.4986 39.297C68.8853 38.7957 68.3317 38.2698 67.84 37.7216C67.3472 37.1733 66.9429 36.5834 66.6272 35.9509C66.3104 35.3194 66.1536 34.6314 66.1536 33.888C66.1536 32.9397 66.3434 32.1226 66.7253 31.4346C67.1061 30.7477 67.5936 30.1845 68.1888 29.7482C68.784 29.312 69.457 28.9909 70.2101 28.7861C70.9632 28.5824 71.7205 28.48 72.4821 28.48ZM71.089 47.9114C70.3829 47.8186 69.7685 47.6565 69.249 47.424C68.7285 47.1914 68.3104 46.9738 67.9946 46.769C67.4549 46.3978 67.0144 45.9605 66.6698 45.4592C66.3253 44.9578 66.1546 44.4181 66.1546 43.8421C66.1546 43.2469 66.368 42.7317 66.7957 42.2944C67.2224 41.8581 67.744 41.6394 68.3573 41.6394C68.9706 41.6394 69.4912 41.8581 69.9189 42.2944C70.3466 42.7317 70.56 43.2469 70.56 43.8421C70.56 44.5482 70.2997 45.1157 69.7792 45.5424C69.6298 45.6725 69.4869 45.8304 69.3472 46.016C69.2074 46.2016 69.1658 46.4245 69.2213 46.6848C69.2586 46.945 69.4581 47.1914 69.8208 47.424C70.1824 47.6565 70.6048 47.8186 71.089 47.9114ZM73.681 28.5632C74.3872 28.656 75.0005 28.8192 75.521 29.0506C76.0416 29.2832 76.4597 29.5104 76.7754 29.7333C77.3141 30.1056 77.7557 30.5376 78.1002 31.0293C78.4437 31.5221 78.6154 32.0565 78.6154 32.6325C78.6154 33.2458 78.401 33.7664 77.9744 34.1941C77.5466 34.6218 77.0261 34.8352 76.4128 34.8352C75.7994 34.8352 75.2789 34.6218 74.8512 34.1941C74.4234 33.7664 74.2101 33.2458 74.2101 32.6325C74.2101 32.2976 74.2794 31.9818 74.4192 31.6842C74.5589 31.3866 74.7488 31.136 74.9909 30.9312C75.1392 30.801 75.2832 30.6432 75.4229 30.4576C75.5626 30.272 75.6042 30.049 75.5488 29.7888C75.5114 29.5285 75.312 29.2821 74.9493 29.0496C74.5877 28.8192 74.1642 28.657 73.681 28.5632Z" fill="url(#paint5_linear)"/>
<path d="M12.5439 55.7078V55.5659H17.0634V56.5195H16.96L16.8938 56.4161C16.7872 56.2401 16.6154 56.0982 16.3797 55.9915C16.144 55.8849 15.8837 55.8315 15.601 55.8315H13.969V58.3883H14.913C15.152 58.3883 15.3632 58.3585 15.5456 58.2987C15.728 58.239 15.8442 58.1622 15.8944 58.0673L15.9317 58.0107H16.0448V59.087H15.9317L15.8944 59.0209C15.8378 58.9142 15.7194 58.8257 15.5402 58.7563C15.361 58.687 15.152 58.6529 14.913 58.6529H13.969V61.0401C13.969 61.4486 14.1258 61.6534 14.4405 61.6534V61.7953H12.5439V61.6534C12.7957 61.6534 12.9215 61.4497 12.9215 61.0401V56.3222C12.9215 55.9126 12.7957 55.7078 12.5439 55.7078Z" fill="white"/>
<path d="M23.9168 61.7941L23.8976 61.6714H23.9637C24.0768 61.6714 24.145 61.6149 24.1664 61.5018C24.1888 61.3888 24.1621 61.2405 24.0864 61.0581C23.9914 60.8192 23.8944 60.5781 23.7941 60.336C23.6938 60.0938 23.5957 59.8528 23.5018 59.6138H21.3877L20.9162 60.9728C20.8469 61.1808 20.8309 61.3472 20.8693 61.473C20.9066 61.5989 20.9888 61.6618 21.1146 61.6618H21.1904V61.8037H19.9541V61.6618C20.1994 61.6618 20.3978 61.473 20.5482 61.0954L22.5962 55.424H22.8608L25.2576 61.0762C25.4272 61.4602 25.6288 61.6512 25.8613 61.6512V61.793H23.9168V61.7941ZM23.3984 59.3504L22.3605 56.8213L21.4826 59.3504H23.3984Z" fill="white"/>
<path d="M32.8544 56.9066L32.7414 56.9162C32.7094 56.8661 32.6784 56.8128 32.6464 56.7562C32.6144 56.6997 32.5835 56.6464 32.5526 56.5962C32.4459 56.4138 32.3072 56.2538 32.1376 56.1152C31.968 55.9765 31.792 55.8858 31.6096 55.841C31.6096 55.8346 31.5904 55.8282 31.5531 55.8218C31.5158 55.8154 31.471 55.809 31.4208 55.8026C31.3643 55.7962 31.2982 55.7898 31.2224 55.7834C30.8448 55.7834 30.543 55.8954 30.3168 56.1184C30.0907 56.3424 29.9776 56.6357 29.9776 57.0005C29.9776 57.1136 30.0171 57.2298 30.095 57.3493C30.1739 57.4688 30.2848 57.585 30.4299 57.6981C30.575 57.8112 30.7488 57.9178 30.9536 58.0192C31.1584 58.1194 31.3835 58.208 31.6288 58.2837C31.8742 58.3594 32.0971 58.4597 32.2987 58.5856C32.5003 58.7114 32.672 58.8533 32.8128 59.0101C32.9547 59.1669 33.0646 59.3354 33.1435 59.5146C33.2224 59.6938 33.2608 59.8784 33.2608 60.0661C33.2608 60.3306 33.2118 60.5728 33.1147 60.7925C33.0176 61.0122 32.879 61.201 32.6998 61.3589C32.5206 61.5157 32.3062 61.6373 32.0576 61.7226C31.8091 61.808 31.5307 61.8496 31.2224 61.8496C30.8512 61.8496 30.4854 61.809 30.1227 61.7269C29.7611 61.6448 29.4635 61.5381 29.231 61.4058V60.4618H29.3536C29.3728 60.4938 29.3931 60.528 29.4155 60.5653C29.4379 60.6026 29.4582 60.6378 29.4774 60.6688C29.6032 60.8885 29.7856 61.0773 30.0246 61.2352C30.2635 61.392 30.5216 61.4965 30.7979 61.5466C30.943 61.5658 31.0806 61.5744 31.2128 61.5744C31.6032 61.5744 31.9158 61.4752 32.1515 61.2768C32.3872 61.0784 32.5056 60.816 32.5056 60.4885C32.5056 60.3562 32.4651 60.224 32.383 60.0928C32.3008 59.9605 32.1867 59.8336 32.0384 59.7109C31.8902 59.5882 31.7131 59.473 31.5051 59.3664C31.2971 59.2597 31.0646 59.1648 30.8064 59.0837C30.5739 59.008 30.3595 58.9109 30.1643 58.7914C29.9691 58.672 29.8038 58.5397 29.6694 58.3946C29.5339 58.2506 29.4283 58.0928 29.3536 57.9232C29.2779 57.7536 29.2406 57.5808 29.2406 57.4037C29.2406 57.121 29.2896 56.8629 29.3867 56.6304C29.4838 56.3978 29.6214 56.1994 29.7974 56.0362C29.9734 55.873 30.1856 55.745 30.4342 55.6544C30.6827 55.5626 30.9579 55.5178 31.2598 55.5178C31.5115 55.5178 31.7814 55.5584 32.0715 55.6405C32.3606 55.7226 32.6219 55.8293 32.8544 55.9616V56.9066Z" fill="white"/>
<path d="M42.925 61.6523V61.7942H41.1223V61.6523C41.3741 61.6523 41.4999 61.4486 41.4999 61.039V58.6518H38.3767V61.039C38.3767 61.4475 38.5026 61.6523 38.7543 61.6523V61.7942H36.9517V61.6523C37.2034 61.6523 37.3293 61.4486 37.3293 61.039V56.3211C37.3293 55.9126 37.2034 55.7078 36.9517 55.7078V55.5659H38.7543V55.7078C38.5026 55.7078 38.3767 55.9126 38.3767 56.3211V58.3873H41.4999V56.3211C41.4999 55.9126 41.3741 55.7078 41.1223 55.7078V55.5659H42.925V55.7078C42.6733 55.7078 42.5474 55.9126 42.5474 56.3211V61.039C42.5485 61.4486 42.6733 61.6523 42.925 61.6523Z" fill="white"/>
<path d="M48.382 61.6523V61.7942H46.5793V61.6523C46.8311 61.6523 46.9569 61.4486 46.9569 61.039V56.3211C46.9569 55.9126 46.8311 55.7078 46.5793 55.7078V55.5659H48.382V55.7078C48.1303 55.7078 48.0044 55.9126 48.0044 56.3211V61.039C48.0044 61.4486 48.1303 61.6523 48.382 61.6523Z" fill="white"/>
<path d="M52.0918 58.6806C52.0918 58.2528 52.1579 57.8475 52.2902 57.4635C52.4225 57.0795 52.6209 56.7446 52.8843 56.4587C53.1489 56.1728 53.4753 55.9446 53.8657 55.775C54.2561 55.6054 54.7083 55.52 55.2246 55.52C55.7409 55.52 56.1931 55.6054 56.5835 55.775C56.9739 55.9446 57.2993 56.1728 57.5606 56.4587C57.8219 56.7446 58.0182 57.0805 58.1505 57.4635C58.2827 57.8475 58.3489 58.2528 58.3489 58.6806C58.3489 59.1083 58.2827 59.5136 58.1505 59.8976C58.0182 60.2816 57.8219 60.6166 57.5606 60.9024C57.2993 61.1894 56.9739 61.4166 56.5835 61.5862C56.1931 61.7558 55.7409 61.8411 55.2246 61.8411C54.7083 61.8411 54.2561 61.7558 53.8657 61.5862C53.4753 61.4166 53.1489 61.1883 52.8843 60.9024C52.6198 60.6166 52.4225 60.2816 52.2902 59.8976C52.1579 59.5136 52.0918 59.1083 52.0918 58.6806ZM53.2523 58.6806C53.2523 59.071 53.295 59.4422 53.3793 59.7942C53.4646 60.1462 53.5883 60.4544 53.7526 60.719C53.9158 60.9835 54.1206 61.1926 54.3659 61.3462C54.6113 61.5008 54.8971 61.5776 55.2246 61.5776C55.5457 61.5776 55.8283 61.5008 56.0737 61.3462C56.319 61.1926 56.5249 60.9824 56.6913 60.719C56.8577 60.4544 56.9825 60.1462 57.0635 59.7942C57.1457 59.4422 57.1862 59.071 57.1862 58.6806C57.1862 58.2902 57.1457 57.919 57.0635 57.567C56.9814 57.215 56.8577 56.9067 56.6913 56.6422C56.5249 56.3776 56.319 56.1686 56.0737 56.015C55.8283 55.8614 55.5457 55.7835 55.2246 55.7835C54.8971 55.7835 54.6113 55.8603 54.3659 56.015C54.1206 56.1696 53.9158 56.3787 53.7526 56.6422C53.5883 56.9067 53.4646 57.215 53.3793 57.567C53.295 57.919 53.2523 58.2902 53.2523 58.6806Z" fill="white"/>
<path d="M62.0865 55.7078L62.0769 55.5659H63.3889L66.7574 60.2742V56.32C66.7574 55.9115 66.6316 55.7067 66.3798 55.7067V55.5648H67.455V55.7067C67.2033 55.7067 67.0774 55.9115 67.0774 56.32V61.9819H66.719L62.7841 56.4896V61.0379C62.7841 61.4464 62.91 61.6512 63.1617 61.6512V61.7931H62.0865V61.6512C62.3382 61.6512 62.4641 61.4475 62.4641 61.0379V56.32C62.4641 55.9126 62.3382 55.7078 62.0865 55.7078Z" fill="white"/>
<path d="M52.1175 10.9536C52.077 10.5365 51.95 10.1173 51.7378 9.69491C51.5234 9.27357 51.229 8.87464 50.8514 8.49704C50.3436 7.98931 49.8188 7.62131 49.2738 7.39091C47.5127 4.10771 44.046 1.86877 40.0663 1.86877C34.6455 1.86877 30.1762 6.02344 29.6738 11.3141C29.2834 11.3493 28.9495 11.5061 28.6722 11.7845C28.366 12.0906 28.1463 12.449 28.013 12.8608C27.8807 13.2714 27.8391 13.6992 27.8892 14.1461C27.9394 14.5909 28.0695 15.0378 28.2796 15.4837C28.4887 15.9306 28.781 16.3413 29.1586 16.7178C29.5255 17.0848 29.9447 17.3664 30.4162 17.5594C30.6732 17.665 30.9303 17.7418 31.1874 17.793C33.0284 20.7658 36.3212 22.7509 40.0674 22.7509C45.3954 22.7509 49.8039 18.7392 50.4322 13.5786C50.8034 13.5349 51.1223 13.3802 51.389 13.1136C51.6674 12.8362 51.8679 12.5109 51.9927 12.1386C52.1154 11.7653 52.157 11.3706 52.1175 10.9536ZM51.1639 9.97118C51.0551 10.1397 50.9111 10.2293 50.733 10.24C50.5826 10.2485 50.4396 10.2528 50.3031 10.2538C50.2775 10.2549 50.2519 10.2549 50.2263 10.2549C49.9564 10.2549 49.71 10.3072 49.4882 10.4128C49.3175 10.4928 49.1618 10.6037 49.021 10.7466C48.7031 11.0645 48.5442 11.457 48.5442 11.9221C48.5431 12.3893 48.7031 12.7808 49.021 13.0986C49.1959 13.2736 49.39 13.4026 49.6055 13.4837C49.0252 18.2304 44.9687 21.92 40.0674 21.92C36.8322 21.92 33.966 20.3125 32.2231 17.8549C32.5623 17.8314 32.8898 17.7653 33.2087 17.6565C33.646 17.5072 34.0183 17.2778 34.3255 16.9706L42.365 8.93011L42.781 8.51304C42.8908 8.40424 43.0146 8.34984 43.1532 8.34984C43.2919 8.34984 43.4167 8.40531 43.5266 8.51304L43.6151 8.42451L43.3772 8.18664L40.5036 5.31197L40.414 5.40157C40.5228 5.51144 40.5772 5.63517 40.5772 5.77491C40.5772 5.91357 40.5218 6.03837 40.413 6.14717L31.9415 14.6186C31.6428 14.9152 31.3463 15.1936 31.0487 15.4528C31.0316 15.4677 31.0156 15.4816 30.9996 15.4944C30.7575 15.7013 30.5271 15.8784 30.3084 16.0234C30.2754 16.0448 30.2423 16.0672 30.2092 16.0874C29.9468 16.2528 29.7058 16.3584 29.4839 16.4053C29.262 16.4522 29.0786 16.4117 28.9335 16.2869C28.7148 16.1077 28.6082 15.8965 28.6135 15.6544C28.6178 15.4112 28.6658 15.2245 28.7543 15.0954C28.845 14.9664 28.9634 14.8576 29.1127 14.768C29.261 14.6794 29.4796 14.64 29.7666 14.6496C29.8082 14.6528 29.8498 14.6528 29.8903 14.6528C30.1826 14.6506 30.4492 14.576 30.6924 14.4277C30.8119 14.3552 30.925 14.2656 31.0327 14.1578C31.3506 13.84 31.5116 13.4496 31.5148 12.9866C31.518 12.5237 31.3548 12.128 31.0252 11.7973C30.8642 11.6373 30.6892 11.5157 30.4962 11.4346C30.9388 6.54504 35.0615 2.70077 40.0652 2.70077C43.4519 2.70077 46.4343 4.46184 48.1474 7.11571C48.0194 7.10504 47.8903 7.10291 47.7612 7.10611C46.6647 7.14024 45.6044 7.66931 44.5826 8.69224L38.27 15.0048L37.854 15.4218C37.7442 15.5317 37.6204 15.5861 37.4818 15.5861C37.342 15.5861 37.2183 15.5306 37.1095 15.4218L37.0199 15.5114L40.1324 18.6229L40.221 18.5333C40.1111 18.4245 40.0578 18.2997 40.0578 18.161C40.0578 18.0224 40.1111 17.8986 40.221 17.7898L44.926 13.0848L45.3132 13.472C45.6407 13.7994 45.8039 14.1909 45.8039 14.6474C45.8039 15.104 45.6407 15.4965 45.3132 15.824L45.4028 15.9125L47.8444 13.472L47.7548 13.3813C47.4274 13.7088 47.0348 13.873 46.5783 13.873C46.1218 13.873 45.7303 13.7088 45.4028 13.3813L45.0156 12.9941L47.7996 10.2101C48.2956 9.71304 48.7308 9.32371 49.1042 9.03997C49.3271 8.87037 49.5276 8.73917 49.7058 8.64637C49.7463 8.62611 49.7847 8.60798 49.8231 8.59198C50.2519 8.41064 50.6348 8.48851 50.9708 8.82558C51.0903 8.94398 51.1842 9.11251 51.2546 9.33118C51.3239 9.54878 51.294 9.76211 51.1639 9.97118Z" fill="url(#paint6_linear)"/>
<path d="M50.3681 4.29757C50.4982 4.37437 50.6017 4.47784 50.6774 4.60904C50.7532 4.74024 50.7905 4.88317 50.7905 5.03784C50.7905 5.19144 50.7532 5.33331 50.6774 5.46557C50.6017 5.59784 50.4982 5.70237 50.367 5.78131C50.2358 5.85917 50.0908 5.89864 49.9329 5.89864C49.7761 5.89864 49.6332 5.86024 49.503 5.78237C49.3729 5.70451 49.2705 5.60104 49.1948 5.46984C49.1201 5.33864 49.0828 5.19677 49.0828 5.04317C49.0828 4.88957 49.1201 4.74771 49.1958 4.61544C49.2716 4.48317 49.375 4.37864 49.5052 4.29971C49.6353 4.22184 49.7793 4.18237 49.9382 4.18237C50.094 4.18237 50.238 4.22077 50.3681 4.29757ZM50.2636 5.60104C50.3628 5.54237 50.4417 5.46344 50.4993 5.36424C50.5569 5.26504 50.5868 5.15624 50.5868 5.03891C50.5868 4.92157 50.558 4.81277 50.5014 4.71464C50.4438 4.61651 50.366 4.53757 50.2668 4.47997C50.1676 4.42237 50.0577 4.39251 49.9382 4.39251C49.8166 4.39251 49.7078 4.42237 49.6086 4.48104C49.5105 4.53971 49.4326 4.61864 49.375 4.71784C49.3174 4.81704 49.2897 4.92584 49.2897 5.04317C49.2897 5.16051 49.3174 5.26931 49.374 5.36744C49.4305 5.46557 49.5073 5.54451 49.6065 5.60211C49.7046 5.65971 49.8134 5.68957 49.9329 5.68957C50.0534 5.68851 50.1633 5.65971 50.2636 5.60104ZM50.2593 5.04957C50.2348 5.09437 50.1996 5.12744 50.1516 5.14877L50.3212 5.41117H50.0865L49.9681 5.18931H49.9606H49.8166V5.41117H49.6118V4.61117H49.9596C50.0673 4.61117 50.1505 4.63571 50.2081 4.68477C50.2657 4.73384 50.2956 4.80211 50.2956 4.89171C50.2956 4.95251 50.2838 5.00477 50.2593 5.04957ZM49.8166 5.02824H49.9606C50.0044 5.02824 50.0385 5.01651 50.063 4.99411C50.0876 4.97171 50.0993 4.93971 50.0993 4.89917C50.0993 4.85757 50.0876 4.82557 50.063 4.80424C50.0385 4.78291 50.0044 4.77224 49.9606 4.77224H49.8166V5.02824Z" fill="url(#paint7_linear)"/>
<defs>
<linearGradient id="paint0_linear" x1="7.94703" y1="18.3445" x2="7.01419" y2="34.4098" gradientUnits="userSpaceOnUse">
<stop stop-color="#EFC3C4" stop-opacity="0"/>
<stop offset="1" stop-color="#B97778"/>
</linearGradient>
<linearGradient id="paint1_linear" x1="21.384" y1="19.1247" x2="20.4512" y2="35.19" gradientUnits="userSpaceOnUse">
<stop stop-color="#EFC3C4" stop-opacity="0"/>
<stop offset="1" stop-color="#B97778"/>
</linearGradient>
<linearGradient id="paint2_linear" x1="38.1438" y1="20.0979" x2="37.211" y2="36.1632" gradientUnits="userSpaceOnUse">
<stop stop-color="#EFC3C4" stop-opacity="0"/>
<stop offset="1" stop-color="#B97778"/>
</linearGradient>
<linearGradient id="paint3_linear" x1="53.8979" y1="21.0126" x2="52.9651" y2="37.0778" gradientUnits="userSpaceOnUse">
<stop stop-color="#EFC3C4" stop-opacity="0"/>
<stop offset="1" stop-color="#B97778"/>
</linearGradient>
<linearGradient id="paint4_linear" x1="62.7468" y1="21.5264" x2="61.8139" y2="37.5917" gradientUnits="userSpaceOnUse">
<stop stop-color="#EFC3C4" stop-opacity="0"/>
<stop offset="1" stop-color="#B97778"/>
</linearGradient>
<linearGradient id="paint5_linear" x1="73.3199" y1="22.1404" x2="72.3871" y2="38.2056" gradientUnits="userSpaceOnUse">
<stop stop-color="#EFC3C4" stop-opacity="0"/>
<stop offset="1" stop-color="#B97778"/>
</linearGradient>
<linearGradient id="paint6_linear" x1="49.469" y1="1.70997" x2="36.3566" y2="16.4922" gradientUnits="userSpaceOnUse">
<stop stop-color="#EFC3C4" stop-opacity="0"/>
<stop offset="1" stop-color="#B97778"/>
</linearGradient>
<linearGradient id="paint7_linear" x1="50.5062" y1="4.39775" x2="49.3662" y2="5.68301" gradientUnits="userSpaceOnUse">
<stop stop-color="#EFC3C4" stop-opacity="0"/>
<stop offset="1" stop-color="#B97778"/>
</linearGradient>
</defs>
</svg>
