<svg width="60" height="60" viewBox="0 0 60 60" fill="none" xmlns="http://www.w3.org/2000/svg">
<path d="M53.7664 0H3.11727C1.40273 0 0 1.42856 0 3.17465V8.88923C0 10.6348 1.40273 12.0637 3.11727 12.0637H53.61C55.3245 12.0637 56.7273 10.6348 56.7273 8.88923V3.17465C56.8827 1.42856 55.4809 0 53.7664 0ZM53.7664 31.9043H3.11727C1.40273 31.9043 0 33.3332 0 35.0797V40.7935C0 42.54 1.40273 43.968 3.11727 43.968H53.61C55.3245 43.968 56.7273 42.54 56.7273 40.7935V35.0797C56.8827 33.3332 55.4809 31.9043 53.7664 31.9043ZM31.6364 47.9363H3.11727C1.40273 47.9363 0 49.3652 0 51.1108V56.8255C0 58.5711 1.40273 60 3.11727 60H31.6364C33.3509 60 34.7536 58.5711 34.7536 56.8255V51.1108C34.7536 49.3652 33.3509 47.9363 31.6364 47.9363ZM56.8827 16.032H3.11727C1.40273 16.032 0 17.46 0 19.2065V24.9203C0 26.6668 1.40273 28.0957 3.11727 28.0957H56.8827C58.5973 28.0957 60 26.6668 60 24.9203V19.2065C60 17.46 58.5973 16.032 56.8827 16.032Z" fill="#0BA4DB"/>
</svg>
